<svg id="Layer_1" viewBox="0 0 512 512" xmlns="http://www.w3.org/2000/svg" data-name="Layer 1"><path d="m328.001 264.65c56.79 0 102.992-46.202 102.992-102.991s-46.202-102.991-102.992-102.991-102.991 46.202-102.991 102.991 46.202 102.991 102.991 102.991zm-60.576-37.864c6.177-28.419 31.095-48.688 60.576-48.688s54.399 20.269 60.577 48.688c-15.898 14.797-37.197 23.864-60.577 23.864s-44.678-9.067-60.576-23.864zm60.576-62.911c-14.268 0-25.876-11.608-25.876-25.876s11.608-25.875 25.876-25.875 25.876 11.607 25.876 25.875-11.608 25.876-25.876 25.876zm0-91.208c49.07 0 88.992 39.921 88.992 88.991 0 19.765-6.48 38.043-17.423 52.828-4.406-12.28-11.941-23.339-21.967-31.978-7.125-6.14-15.281-10.84-24.01-13.96 8.725-7.321 14.284-18.296 14.284-30.55 0-21.987-17.888-39.875-39.876-39.875s-39.876 17.888-39.876 39.875c0 12.254 5.56 23.229 14.285 30.55-8.729 3.12-16.885 7.82-24.01 13.96-10.025 8.64-17.561 19.698-21.967 31.978-10.943-14.785-17.423-33.063-17.423-52.828 0-49.07 39.921-88.991 88.991-88.991zm162.792 249.982c-6.824-7.748-20.651-11.56-36.155-2.609-19.341 11.166-67.375 34.589-103.406 48.277 1.41-6.703.276-13.731-3.411-19.935-5.301-8.92-14.624-14.031-24.949-13.689-44.574-.022-73.418-11.987-98.87-22.544-23.139-9.599-43.121-17.89-66.763-12.167-23.87 5.777-49.28 25.566-82.072 63.983-8.469-4.07-18.947-2.623-25.958 4.388l-31.212 31.212c-2.733 2.734-2.733 7.166 0 9.899l96.486 96.486c1.313 1.312 3.093 2.05 4.95 2.05s3.637-.738 4.95-2.05l31.212-31.213c4.285-4.286 6.646-10 6.646-16.09 0-2.835-.532-5.581-1.511-8.147 19.924-8.346 42.136-9.068 70.523-7.368 6.38.382 13.077.921 20.167 1.492 16.822 1.355 34.221 2.758 51.026 2.384 35.315-.78 56.569-10.698 84.963-25.74 28.939-15.329 90.658-51.937 102.189-67.093 8.153-10.719 8.622-23.093 1.195-31.525zm-345.098 142.188-26.263 26.263-86.586-86.586 26.263-26.263c3.413-3.414 8.968-3.414 12.382 0l74.205 74.205c1.641 1.641 2.545 3.839 2.545 6.19s-.904 4.55-2.545 6.191zm332.761-119.139c-8.117 10.669-60.03 43.297-97.601 63.198-26.625 14.104-46.488 23.402-78.72 24.115-16.091.354-33.122-1.016-49.592-2.343-7.164-.577-13.931-1.122-20.455-1.512-25.187-1.507-53.989-2.039-80.025 9.87l-66.123-66.122c64.846-75.963 89.123-65.899 132.697-47.824 25.361 10.521 56.923 23.613 104.355 23.613.088 0 .176-.002.264-.005 5.199-.198 9.864 2.364 12.528 6.846s2.673 9.819.024 14.275c-4.825 8.119-22.29 12.332-46.712 11.263-22.9-.999-45.947-6.47-55-11.181-3.429-1.783-7.656-.452-9.441 2.978-1.785 3.429-.451 7.656 2.978 9.441 12.266 6.384 37.858 11.745 60.853 12.749 2.568.112 5.223.177 7.926.177 12.25 0 25.469-1.346 35.895-5.74 36.403-10.261 104.308-42.887 129.329-57.333 8.6-4.965 15.696-3.616 18.649-.262 2.91 3.304 2.226 8.462-1.832 13.796zm-319.757-50.433c21.918 0 41.292-11.076 52.838-27.919 1.465 1.989 3.11 3.92 4.985 5.794 11.22 11.219 24.939 15.272 41.951 12.388 12.271-2.079 23.899 2.738 31.105 12.885 9.991 14.067 22.56 20.905 38.425 20.905s28.434-6.838 38.424-20.905c7.207-10.146 18.835-14.961 31.107-12.884 17.009 2.879 30.735-1.173 41.95-12.389 11.22-11.22 15.272-24.943 12.388-41.951-2.079-12.271 2.738-23.898 12.885-31.105 14.067-9.991 20.905-22.56 20.905-38.424s-6.838-28.434-20.905-38.425c-10.146-7.207-14.963-18.834-12.883-31.106 2.879-17.013-1.173-30.735-12.39-41.951-11.221-11.22-24.945-15.274-41.951-12.388-12.27 2.076-23.899-2.738-31.105-12.884-9.99-14.067-22.559-20.905-38.424-20.905s-28.434 6.838-38.425 20.905c-7.207 10.146-18.837 14.963-31.106 12.883-17.01-2.879-30.735 1.174-41.951 12.389-11.22 11.22-15.272 24.943-12.387 41.952 2.079 12.27-2.738 23.898-12.885 31.105-14.067 9.991-20.905 22.56-20.905 38.425 0 2.305.164 4.542.456 6.721-3.921-.753-7.963-1.162-12.1-1.162-35.303 0-64.024 28.721-64.024 64.024s28.721 64.024 64.024 64.024zm25.644-133.606c0-11.307 4.63-19.637 15.012-27.011 14.633-10.393 21.579-27.162 18.581-44.859-2.129-12.553.487-21.716 8.484-29.712 8.101-8.101 16.987-10.638 29.714-8.485 17.698 2.999 34.465-3.947 44.858-18.58 7.374-10.382 15.704-15.012 27.011-15.012s19.637 4.63 27.011 15.012c10.393 14.633 27.162 21.579 44.858 18.581 12.552-2.128 21.716.488 29.713 8.484 8.102 8.101 10.639 16.988 8.485 29.714-2.999 17.696 3.947 34.465 18.58 44.858 10.382 7.374 15.012 15.704 15.012 27.011s-4.63 19.637-15.012 27.01c-14.633 10.394-21.58 27.163-18.581 44.859 2.128 12.552-.488 21.716-8.484 29.712-8.101 8.101-16.986 10.637-29.714 8.485-17.693-2.997-34.465 3.949-44.858 18.581-7.373 10.382-15.703 15.011-27.01 15.011s-19.637-4.629-27.011-15.011c-10.393-14.633-27.163-21.581-44.859-18.581-12.553 2.129-21.716-.488-29.712-8.484-3.411-3.411-5.806-6.986-7.297-10.87 2.322-6.62 3.599-13.727 3.599-21.13 0-25.357-14.818-47.317-36.249-57.679-1.424-3.553-2.131-7.467-2.131-11.904zm-25.644 19.559c27.583 0 50.024 22.44 50.024 50.024s-22.44 50.024-50.024 50.024-50.024-22.44-50.024-50.024 22.441-50.024 50.024-50.024zm-30.576 48.559c-1.933-3.348-.786-7.629 2.562-9.562 3.347-1.932 7.629-.786 9.562 2.562l8.646 14.975 29.37-29.37c2.734-2.733 7.166-2.732 9.899 0 2.733 2.734 2.733 7.166 0 9.899l-35.821 35.82c-1.321 1.321-3.105 2.05-4.949 2.05-.304 0-.609-.02-.914-.06-2.158-.284-4.061-1.555-5.148-3.44l-13.207-22.875z"/></svg>