<svg height="512" viewBox="0 0 64 64" width="512" xmlns="http://www.w3.org/2000/svg"><g id="Icons"><path d="m56.5 47c0-21.629 0-16.282 0-38 0-.827-.673-1.5-1.5-1.5h-46c-.827 0-1.5.673-1.5 1.5v38c0 .827.673 1.5 1.5 1.5h5.1v-1h-5.1c-.276 0-.5-.224-.5-.5v-32.5h47v32.5c0 .276-.224.5-.5.5h-5.1v1h5.1c.827 0 1.5-.673 1.5-1.5zm-48-33.5v-4.5c0-.276.224-.5.5-.5h46c.276 0 .5.224.5.5v4.5z"/><path d="m53 9.5c-.827 0-1.5.673-1.5 1.5s.673 1.5 1.5 1.5 1.5-.673 1.5-1.5-.673-1.5-1.5-1.5zm0 2c-.276 0-.5-.224-.5-.5s.224-.5.5-.5.5.224.5.5-.224.5-.5.5z"/><path d="m49 9.5c-.827 0-1.5.673-1.5 1.5s.673 1.5 1.5 1.5 1.5-.673 1.5-1.5-.673-1.5-1.5-1.5zm0 2c-.276 0-.5-.224-.5-.5s.224-.5.5-.5.5.224.5.5-.224.5-.5.5z"/><path d="m45 9.5c-.827 0-1.5.673-1.5 1.5s.673 1.5 1.5 1.5 1.5-.673 1.5-1.5-.673-1.5-1.5-1.5zm0 2c-.276 0-.5-.224-.5-.5s.224-.5.5-.5.5.224.5.5-.224.5-.5.5z"/><path d="m29 56.5h6c.827 0 1.5-.673 1.5-1.5v-2.142c2.634-.746 5.038-2.13 6.992-4.027l1.847 1.066c.715.413 1.636.167 2.049-.549l3-5.196c.414-.718.169-1.635-.549-2.049l-1.852-1.069c.684-2.703.684-5.363 0-8.067l1.852-1.069c.718-.414.964-1.33.55-2.049l-3-5.197c-.413-.715-1.333-.96-2.049-.548l-1.847 1.066c-1.954-1.897-4.357-3.282-6.992-4.027v-2.143c0-.827-.673-1.5-1.5-1.5h-6c-.827 0-1.5.673-1.5 1.5v2.142c-2.634.746-5.038 2.13-6.992 4.027l-1.847-1.066c-.714-.412-1.635-.167-2.049.549l-3 5.196c-.414.718-.169 1.634.549 2.049l1.852 1.069c-.684 2.703-.684 5.363 0 8.067l-1.852 1.069c-.718.414-.964 1.33-.55 2.049l3 5.197c.414.716 1.334.961 2.049.548l1.847-1.066c1.954 1.897 4.357 3.282 6.992 4.027v2.143c0 .827.673 1.5 1.5 1.5zm-8.054-8.644c-.159-.162-.408-.197-.607-.083l-2.178 1.257c-.24.137-.546.056-.683-.183l-3-5.196c-.137-.236-.059-.542.183-.683l2.184-1.261c.197-.114.292-.347.232-.566-.769-2.778-.769-5.506 0-8.284.061-.219-.035-.452-.232-.566l-2.184-1.261c-.244-.142-.318-.449-.183-.683l3-5.196c.139-.24.444-.322.684-.183l2.178 1.257c.198.113.447.08.607-.083 1.965-2 4.447-3.431 7.179-4.135.221-.057.375-.256.375-.484v-2.523c0-.276.224-.5.5-.5h6c.276 0 .5.224.5.5v2.524c0 .228.154.427.375.484 2.731.704 5.214 2.134 7.179 4.135.16.163.41.196.607.083l2.178-1.257c.238-.139.545-.057.683.183l3 5.196c.137.236.059.542-.183.683l-2.184 1.261c-.197.114-.292.347-.232.566.769 2.778.769 5.506 0 8.284-.061.219.035.452.232.566l2.184 1.261c.244.142.318.449.183.683l-3 5.196c-.138.239-.445.32-.684.183l-2.178-1.257c-.197-.113-.447-.08-.607.083-1.965 2-4.447 3.431-7.179 4.135-.221.057-.375.256-.375.484v2.524c0 .276-.224.5-.5.5h-6c-.276 0-.5-.224-.5-.5v-2.524c0-.228-.154-.427-.375-.484-2.731-.705-5.214-2.135-7.179-4.136z"/><path d="m43.5 37c0-6.341-5.159-11.5-11.5-11.5s-11.5 5.159-11.5 11.5 5.159 11.5 11.5 11.5c6.186 0 11.5-4.948 11.5-11.5zm-22 0c0-5.79 4.71-10.5 10.5-10.5s10.5 4.71 10.5 10.5c0 5.989-4.854 10.5-10.5 10.5-5.79 0-10.5-4.71-10.5-10.5z"/><path d="m34.767 45.793.707-.707-1.7-1.7c-.126-.126-.31-.177-.482-.129-1.016.27-2.059.31-3.101.121-3.31-.606-5.756-3.623-5.69-7.021.005-.353.038-.705.098-1.052l3.899 3.899c.586.587 1.541.587 2.127 0l3.58-3.58c.586-.586.586-1.541 0-2.127l-3.898-3.897c.392-.066.794-.1 1.201-.1 3.629.009 6.692 2.837 6.973 6.434.056.819-.016 1.612-.214 2.357-.045.172.004.356.13.482l1.7 1.7.707-.707-1.501-1.501c.173-.768.232-1.574.176-2.405-.321-4.117-3.821-7.351-7.969-7.361-.805 0-1.591.115-2.335.341-.359.11-.476.565-.208.832l4.53 4.53c.196.197.196.516 0 .713l-3.58 3.58c-.196.196-.517.196-.713 0l-4.53-4.53c-.263-.263-.719-.157-.832.207-.216.706-.332 1.436-.342 2.167-.075 3.88 2.724 7.329 6.51 8.021 1.093.2 2.186.176 3.256-.068z"/><path d="m10 10.5h26v1h-26z"/></g></svg>