<?xml version="1.0"?>
<svg xmlns="http://www.w3.org/2000/svg" id="Layer_1" data-name="Layer 1" viewBox="0 0 512 512" >
<path d="M84.584,161.512H215.353a16.477,16.477,0,0,0,16.459-16.458V49.835a16.478,16.478,0,0,0-16.459-16.459H185.517V22.516A14.533,14.533,0,0,0,171,8H129.508a14.533,14.533,0,0,0-14.516,14.516v10.86H84.584A16.477,16.477,0,0,0,68.126,49.835v95.219A16.477,16.477,0,0,0,84.584,161.512Zm131.228-75.92v.019a11.218,11.218,0,0,1-11.2,11.206H168.932v-9.3a8,8,0,0,0-8-8H137.863a8,8,0,0,0-8,8v9.3H94.187c-5.919,0-10.053-4.5-10.053-10.946,0-.053-.007-.1-.008-.155V74.71H215.812Zm-62.88,9.924v15.068a3.535,3.535,0,1,1-7.069,0V95.516Zm62.421,50H84.584a.482.482,0,0,1-.458-.458V110.876a26.485,26.485,0,0,0,10.061,1.941H130a19.523,19.523,0,0,0,38.793,0h35.813a27.042,27.042,0,0,0,11.205-2.424v34.661A.482.482,0,0,1,215.353,145.512ZM130.992,24h38.525v9.376H130.992ZM84.584,49.376H215.353a.483.483,0,0,1,.459.459V58.71H84.126V49.835A.483.483,0,0,1,84.584,49.376ZM322.01,460.791a8,8,0,0,1-8,8H20.189a8,8,0,0,1-8-8V77.285a8,8,0,0,1,16,0V452.791H314.01A8,8,0,0,1,322.01,460.791ZM259,209.913a8,8,0,0,0-8,8V434.958a8,8,0,0,0,8,8H310.76a8,8,0,0,0,8-8V217.913a8,8,0,0,0-8-8ZM302.76,426.958H267V225.913H302.76ZM160.769,258.145a8,8,0,0,0-8,8V434.958a8,8,0,0,0,8,8H212.53a8,8,0,0,0,8-8V266.145a8,8,0,0,0-8-8ZM204.53,426.958H168.769V274.145H204.53Zm-141.991,16H114.3a8,8,0,0,0,8-8V316.729a8,8,0,0,0-8-8H62.539a8,8,0,0,0-8,8V434.957A8,8,0,0,0,62.539,442.957Zm8-118.228H106.3V426.957H70.539ZM68.8,271.113a8,8,0,0,1,0-11.314l84.164-84.164a37.409,37.409,0,0,1,49.676-2.879l12.767,10.107a21.163,21.163,0,0,0,27.336-.627L335.4,101.7h-1.836a8,8,0,0,1,0-16h23.216c.071,0,.14.008.21.01.1,0,.193.009.289.015a7.9,7.9,0,0,1,.864.1c.072.012.144.019.216.033a7.863,7.863,0,0,1,.966.263c.112.037.222.079.334.122a7.846,7.846,0,0,1,.743.331c.067.034.137.055.2.091.084.045.156.105.238.154.192.113.378.232.559.36.142.1.281.2.415.31s.269.234.4.355a7.788,7.788,0,0,1,.607.626c.078.09.155.182.229.276a7.978,7.978,0,0,1,1.037,1.712c.043.1.083.2.123.3a7.969,7.969,0,0,1,.512,2.034c.008.074.014.149.021.225a7.96,7.96,0,0,1-.023,1.778l-3.2,23.279a8,8,0,1,1-15.85-2.18l.3-2.177-92.725,80.6a36.975,36.975,0,0,1-47.763,1.1L192.708,185.3a21.409,21.409,0,0,0-28.43,1.647L80.114,271.113a8,8,0,0,1-11.314,0Zm348.188,58.549v-154.1a8,8,0,0,0-8-8h-51.76a8,8,0,0,0-8,8V356.894a87.182,87.182,0,1,0,67.76-27.232Zm66.362,79.114H420.587V346.013A71.346,71.346,0,0,1,483.35,408.776Zm-78.763-62.763v56.893l-49.226-28.478A71.237,71.237,0,0,1,404.587,346.013Zm-3.6-162.451V330.325a86.657,86.657,0,0,0-35.76,13.238v-160ZM412.587,488a71.189,71.189,0,0,1-65.252-99.73L408.581,423.7c.038.022.079.037.118.058a7.9,7.9,0,0,0,.8.394c.067.029.137.049.206.076.227.088.457.166.693.234.1.029.207.055.311.08.212.051.428.093.646.127.1.016.2.034.3.046a8.115,8.115,0,0,0,.9.058l.034,0h70.762A71.317,71.317,0,0,1,412.587,488Z"/>
</svg>
