<?xml version="1.0" encoding="UTF-8"?>
<svg xmlns="http://www.w3.org/2000/svg" id="Layer_1" data-name="Layer 1" viewBox="0 0 64 64" width="512" height="512"><path d="M61,16H45V2.96094A1.96343,1.96343,0,0,0,43.03906,1H20.96094A1.96343,1.96343,0,0,0,19,2.96094V14H3a2.002,2.002,0,0,0-2,2V30a2.002,2.002,0,0,0,2,2H8.46484L14.168,40.55469a.99987.99987,0,0,0,1.82568-.665L15.11719,32H21a2.002,2.002,0,0,0,2-2V23h5.20459l2.8208,12.2251a1.00034,1.00034,0,0,0,1.94922,0L35.79541,23H41v9a2.002,2.002,0,0,0,2,2h5.84717l-.83692,5.8584a1,1,0,0,0,1.749.79248L55.46,34H61a2.002,2.002,0,0,0,2-2V18A2.002,2.002,0,0,0,61,16ZM21,30H14a.99956.99956,0,0,0-.99365,1.11035l.5459,4.915L9.832,30.44531A.99963.99963,0,0,0,9,30H3V16H19v5.03906A1.96343,1.96343,0,0,0,20.96094,23H21Zm14-9a1.00025,1.00025,0,0,0-.97461.7749L32,30.55273,29.97461,21.7749A1.00025,1.00025,0,0,0,29,21l-8,.03906L20.96094,3,43,2.96094V21ZM61,32H55a.99968.99968,0,0,0-.75928.34912L50.47559,36.7417l.51416-3.6001A.99979.99979,0,0,0,50,32H43V23h.03906A1.96343,1.96343,0,0,0,45,21.03906V18H61Z"/><path d="M9,55v7a1,1,0,0,0,1,1H22a1,1,0,0,0,1-1V55a4.99022,4.99022,0,0,0-3.47491-4.73688A4.45494,4.45494,0,0,0,20.5,47.5a4.5,4.5,0,0,0-9,0,4.45494,4.45494,0,0,0,.97491,2.76312A4.99022,4.99022,0,0,0,9,55Zm7-10a2.5,2.5,0,1,1-2.5,2.5A2.50294,2.50294,0,0,1,16,45ZM11,55a3.00328,3.00328,0,0,1,3-3h4a3.00328,3.00328,0,0,1,3,3v6H11Z"/><path d="M25,55v7a1,1,0,0,0,1,1H38a1,1,0,0,0,1-1V55a4.99022,4.99022,0,0,0-3.47491-4.73688A4.45494,4.45494,0,0,0,36.5,47.5a4.5,4.5,0,0,0-9,0,4.45494,4.45494,0,0,0,.97491,2.76312A4.99022,4.99022,0,0,0,25,55Zm7-10a2.5,2.5,0,1,1-2.5,2.5A2.50294,2.50294,0,0,1,32,45ZM27,55a3.00328,3.00328,0,0,1,3-3h4a3.00328,3.00328,0,0,1,3,3v6H27Z"/><path d="M41,55v7a1,1,0,0,0,1,1H54a1,1,0,0,0,1-1V55a4.99022,4.99022,0,0,0-3.47491-4.73688A4.45494,4.45494,0,0,0,52.5,47.5a4.5,4.5,0,0,0-9,0,4.45494,4.45494,0,0,0,.97491,2.76312A4.99022,4.99022,0,0,0,41,55Zm7-10a2.5,2.5,0,1,1-2.5,2.5A2.50294,2.50294,0,0,1,48,45ZM43,55a3.00328,3.00328,0,0,1,3-3h4a3.00328,3.00328,0,0,1,3,3v6H43Z"/><path d="M51.44824,29.834a.99988.99988,0,0,0,1.10352,0C53.88916,28.94971,57,26.60547,57,23.94629a2.82758,2.82758,0,0,0-2.23242-2.8667A3.29947,3.29947,0,0,0,52,21.71094a3.29929,3.29929,0,0,0-2.76758-.63135A2.82758,2.82758,0,0,0,47,23.94629C47,26.60547,50.11084,28.94971,51.44824,29.834ZM49.6748,23.02979a1.28821,1.28821,0,0,1,1.42334.66894.9997.9997,0,0,0,1.80372,0,1.26837,1.26837,0,0,1,1.42334-.66894.83072.83072,0,0,1,.6748.9165c0,1.15771-1.43115,2.689-3,3.83594-1.56885-1.147-3-2.67823-3-3.83594A.83072.83072,0,0,1,49.6748,23.02979Z"/><path d="M14.76758,19.07959A3.29831,3.29831,0,0,0,12,19.71094a3.30057,3.30057,0,0,0-2.76758-.63135A2.82758,2.82758,0,0,0,7,21.94629c0,2.65918,3.11084,5.00342,4.44824,5.88769a.99988.99988,0,0,0,1.10352,0C13.88916,26.94971,17,24.60547,17,21.94629A2.82758,2.82758,0,0,0,14.76758,19.07959ZM12,25.78223c-1.56885-1.147-3-2.67823-3-3.83594a.83072.83072,0,0,1,.6748-.9165,1.28821,1.28821,0,0,1,1.42334.66894.9997.9997,0,0,0,1.80372,0,1.2696,1.2696,0,0,1,1.42334-.66894.83072.83072,0,0,1,.6748.9165C15,23.104,13.56885,24.63525,12,25.78223Z"/><path d="M36.11523,6.11963A4.63251,4.63251,0,0,0,32,7.1709a4.62965,4.62965,0,0,0-4.11523-1.05127A3.61239,3.61239,0,0,0,25,9.78027c0,3.70411,4.94971,7.11035,6.4668,8.06592a1.0011,1.0011,0,0,0,1.0664,0C34.05029,16.89062,39,13.48438,39,9.78027A3.61239,3.61239,0,0,0,36.11523,6.11963ZM32,15.80713c-2.416-1.62207-5-4.042-5-6.02686a1.63916,1.63916,0,0,1,1.34668-1.71435,2.45978,2.45978,0,0,1,.56689-.06446,2.41939,2.41939,0,0,1,2.19288,1.25782,1.04108,1.04108,0,0,0,1.7871,0,2.48791,2.48791,0,0,1,2.75977-1.19336A1.63916,1.63916,0,0,1,37,9.78027C37,11.76514,34.416,14.18506,32,15.80713Z"/></svg>
