<?xml version="1.0" encoding="UTF-8"?>
<svg xmlns="http://www.w3.org/2000/svg" id="Layer_1" data-name="Layer 1" viewBox="0 0 64 64" width="512" height="512"><path d="M32,48a8,8,0,1,1,8-8A8.009,8.009,0,0,1,32,48Zm0-14a6,6,0,1,0,6,6A6.006,6.006,0,0,0,32,34Z"/><path d="M44,61a1,1,0,0,1-1-1V54c0-1.018-3.883-3-11-3s-11,1.982-11,3v6a1,1,0,0,1-2,0V54c0-3.283,6.54-5,13-5s13,1.717,13,5v6A1,1,0,0,1,44,61Z"/><path d="M49,43a8,8,0,1,1,8-8A8.009,8.009,0,0,1,49,43Zm0-14a6,6,0,1,0,6,6A6.006,6.006,0,0,0,49,29Z"/><path d="M61,56a1,1,0,0,1-1-1V49c0-1.018-3.883-3-11-3-4.1,0-7.9.715-9.9,1.866a1,1,0,1,1-1-1.732C40.425,44.8,44.5,44,49,44c6.46,0,13,1.717,13,5v6A1,1,0,0,1,61,56Z"/><path d="M15,43a8,8,0,1,1,8-8A8.009,8.009,0,0,1,15,43Zm0-14a6,6,0,1,0,6,6A6.006,6.006,0,0,0,15,29Z"/><path d="M3,56a1,1,0,0,1-1-1V49c0-3.283,6.54-5,13-5,4.5,0,8.575.8,10.894,2.134a1,1,0,1,1-1,1.732C22.9,46.715,19.105,46,15,46,7.883,46,4,47.982,4,49v6A1,1,0,0,1,3,56Z"/><path d="M32,24a1,1,0,0,1-.707-1.707L46.364,7.222a1,1,0,0,1,1.414,1.414L32.707,23.707A1,1,0,0,1,32,24Z"/><path d="M46,15a1.01,1.01,0,0,1-.243-.03l-4-1a1,1,0,0,1-.464-1.677l5-5a1,1,0,0,1,.95-.263l4,1a1,1,0,0,1,.464,1.677l-5,5A1,1,0,0,1,46,15Zm-2.044-2.542,1.737.435,3.351-3.351-1.737-.435Z"/><path d="M42,14a1.016,1.016,0,0,1-.267-.036,1,1,0,0,1-.7-.721l-1-4a1,1,0,0,1,.263-.95l5-5a1,1,0,0,1,1.677.464l1,4a1,1,0,0,1-.263.95l-5,5A1,1,0,0,1,42,14Zm.107-4.693.435,1.737,3.351-3.351-.435-1.737Z"/><path d="M15.115,26a1,1,0,0,1-.992-.884A18.429,18.429,0,0,1,14,23,18.009,18.009,0,0,1,39.412,6.592a1,1,0,0,1-.824,1.823A16.008,16.008,0,0,0,16,23a16.423,16.423,0,0,0,.109,1.884,1,1,0,0,1-.877,1.109A.918.918,0,0,1,15.115,26Z"/><path d="M48.885,26a.918.918,0,0,1-.117-.007,1,1,0,0,1-.877-1.109A16.423,16.423,0,0,0,48,23a15.87,15.87,0,0,0-1.415-6.588,1,1,0,0,1,1.823-.824A17.867,17.867,0,0,1,50,23a18.429,18.429,0,0,1-.123,2.116A1,1,0,0,1,48.885,26Z"/><path d="M32,29a6,6,0,1,1,6-6A6.006,6.006,0,0,1,32,29Zm0-10a4,4,0,1,0,4,4A4,4,0,0,0,32,19Z"/><path d="M38.319,33a1,1,0,0,1-.577-1.818,10,10,0,1,0-11.484,0,1,1,0,1,1-1.152,1.636,12,12,0,1,1,13.788,0A1,1,0,0,1,38.319,33Z"/></svg>
