<svg height="512" viewBox="0 0 64 64" width="512" xmlns="http://www.w3.org/2000/svg" xmlns:xlink="http://www.w3.org/1999/xlink"><linearGradient id="linear-gradient" gradientUnits="userSpaceOnUse" x1="2.5" x2="61.5" y1="32" y2="32"><stop offset="0" stop-color="#1b70b7"/><stop offset=".3" stop-color="#3383c3"/><stop offset=".92" stop-color="#70b3e2"/><stop offset="1" stop-color="#79bae6"/></linearGradient><g id="Layer_57" data-name="Layer 57"><path d="m32 2.5a29.5 29.5 0 1 0 29.5 29.5 29.53 29.53 0 0 0 -29.5-29.5zm0 56a26.5 26.5 0 1 1 26.5-26.5 26.53 26.53 0 0 1 -26.5 26.5zm14.92-27.8-20.64-11.92a1.54 1.54 0 0 0 -1.5 0 1.52 1.52 0 0 0 -.75 1.3v23.84a1.5 1.5 0 0 0 2.25 1.3l20.64-11.92a1.5 1.5 0 0 0 0-2.6zm-19.92 10.62v-18.64l16.17 9.32z" fill="url(#linear-gradient)"/></g></svg>