<svg id="question" viewBox="0 0 32 32" xmlns="http://www.w3.org/2000/svg"><path d="m13 22.25c-.4141 0-.75-.3359-.75-.75v-1.1938c0-.8472.4512-1.644 1.1777-2.0806l1.1221-.6729c.7842-.4707 1.2715-1.3311 1.2715-2.2461v-.2354c0-1.5557-1.2656-2.8213-2.8213-2.8213s-2.8213 1.2656-2.8213 2.8213c0 .4141-.3359.75-.75.75s-.75-.3359-.75-.75c0-2.3828 1.9385-4.3213 4.3213-4.3213s4.3213 1.9385 4.3213 4.3213v.2354c0 1.439-.7661 2.7925-2 3.5322l-1.1216.6729c-.2773.1665-.4497.4712-.4497.7944v1.1938c0 .4141-.3359.75-.75.75z"/><path d="m1 31.75c-.1567 0-.3135-.0493-.4458-.147-.2573-.1904-.3657-.5229-.2695-.8281l1.8945-6.0249c-1.2632-2.0264-1.9292-4.3525-1.9292-6.75 0-7.0303 5.7197-12.75 12.75-12.75s12.75 5.7197 12.75 12.75-5.7197 12.75-12.75 12.75c-2.5693 0-5.0283-.7505-7.145-2.1763l-4.4302 3.0444c-.1279.0879-.2764.1318-.4248.1318zm4.8599-4.8398c.1562 0 .312.0488.4443.1455 1.9531 1.4355 4.2686 2.1943 6.6958 2.1943 6.2031 0 11.25-5.0469 11.25-11.25s-5.0469-11.25-11.25-11.25-11.25 5.0469-11.25 11.25c0 2.2227.6484 4.3755 1.875 6.2256.125.1885.1582.4238.0903.6396l-1.3472 4.2847 3.0669-2.1079c.1279-.0879.2764-.1318.4248-.1318z"/><path d="m31 26.75c-.1484 0-.2964-.0439-.4248-.1318l-3.96-2.7202c-.3413-.2344-.4277-.7012-.1934-1.043.2349-.3408.7017-.4277 1.043-.1934l2.1675 1.4888-1.3477-4.2852c-.0679-.2158-.0347-.4512.0903-.6396 1.2266-1.8501 1.875-4.0029 1.875-6.2256 0-6.2031-5.0469-11.25-11.25-11.25-2.2417 0-4.4038.6548-6.2524 1.8931-.3452.2305-.8101.1382-1.0405-.2056-.2305-.3442-.1387-.8101.2056-1.0405 2.0962-1.4048 4.5474-2.147 7.0874-2.147 7.0303 0 12.75 5.7197 12.75 12.75 0 2.3975-.666 4.7236-1.9292 6.75l1.8945 6.0249c.0962.3052-.0122.6377-.2695.8281-.1323.0977-.2891.147-.4458.147z"/><circle cx="13" cy="24.5" r=".75"/></svg>