<?xml version="1.0" encoding="UTF-8"?>
<svg xmlns="http://www.w3.org/2000/svg" id="Layer_1" data-name="Layer 1" viewBox="0 0 64 64" width="512" height="512"><path d="M43.072,48.861l-3.536-2.248L38.464,48.3,41.137,50,32,55.814,22.863,50l2.673-1.7-1.072-1.688-3.536,2.248A1.989,1.989,0,0,0,20,50.549v3.9a1.992,1.992,0,0,0,.926,1.688l10,6.363a2.01,2.01,0,0,0,2.148,0l10-6.363A1.992,1.992,0,0,0,44,54.451v-3.9A1.989,1.989,0,0,0,43.072,48.861ZM42,54.451,32,60.814,22,54.451V51.822l8.926,5.68a2.01,2.01,0,0,0,2.148,0L42,51.822Z"/><path d="M28,50h8a1,1,0,0,0,1-1V44a3.5,3.5,0,0,0-2.75-3.414,3.25,3.25,0,1,0-4.5,0A3.5,3.5,0,0,0,27,44v5A1,1,0,0,0,28,50Zm4-13a1.25,1.25,0,1,1-1.25,1.25A1.252,1.252,0,0,1,32,37Zm-3,7a1.5,1.5,0,0,1,1.5-1.5h3A1.5,1.5,0,0,1,35,44v4H29Z"/><path d="M33,31V7.837a3.5,3.5,0,1,0-2,0V31ZM30.5,4.5A1.5,1.5,0,1,1,32,6,1.5,1.5,0,0,1,30.5,4.5Z"/><path d="M21.6,24.8l4-3A1,1,0,0,0,26,21V15.837a3.5,3.5,0,1,0-2,0V20.5l-3.6,2.7Zm1.9-12.3A1.5,1.5,0,1,1,25,14,1.5,1.5,0,0,1,23.5,12.5Z"/><path d="M38.4,21.8l4,3,1.2-1.6L40,20.5V15.837a3.5,3.5,0,1,0-2,0V21A1,1,0,0,0,38.4,21.8Zm-.9-9.3A1.5,1.5,0,1,1,39,14,1.5,1.5,0,0,1,37.5,12.5Z"/><path d="M62.074,32.861,58.537,30.61,57.463,32.3,60.137,34,51,39.814,41.863,34l2.674-1.7L43.463,30.61l-3.537,2.251A1.992,1.992,0,0,0,39,34.549v3.9a1.992,1.992,0,0,0,.926,1.688l10,6.363a2.01,2.01,0,0,0,2.148,0l10-6.363A1.992,1.992,0,0,0,63,38.451v-3.9A1.992,1.992,0,0,0,62.074,32.861ZM61,38.451,51,44.814,41,38.451V35.822l8.926,5.68a2.01,2.01,0,0,0,2.148,0L61,35.822Z"/><path d="M46,33a1,1,0,0,0,1,1h8a1,1,0,0,0,1-1V28a3.5,3.5,0,0,0-2.75-3.414,3.25,3.25,0,1,0-4.5,0A3.5,3.5,0,0,0,46,28Zm5-12a1.25,1.25,0,1,1-1.25,1.25A1.252,1.252,0,0,1,51,21Zm-3,7a1.5,1.5,0,0,1,1.5-1.5h3A1.5,1.5,0,0,1,54,28v4H48Z"/><path d="M25,38.451v-3.9a1.992,1.992,0,0,0-.926-1.688L20.537,30.61,19.463,32.3,22.137,34,13,39.814,3.863,34l2.674-1.7L5.463,30.61,1.926,32.861A1.992,1.992,0,0,0,1,34.549v3.9a1.992,1.992,0,0,0,.926,1.688l10,6.363a2.01,2.01,0,0,0,2.148,0l10-6.363A1.992,1.992,0,0,0,25,38.451Zm-2,0L13,44.814,3,38.451V35.822l8.926,5.68a2.01,2.01,0,0,0,2.148,0L23,35.822Z"/><path d="M8,28v5a1,1,0,0,0,1,1h8a1,1,0,0,0,1-1V28a3.5,3.5,0,0,0-2.75-3.414,3.25,3.25,0,1,0-4.5,0A3.5,3.5,0,0,0,8,28Zm5-7a1.25,1.25,0,1,1-1.25,1.25A1.252,1.252,0,0,1,13,21Zm-3,7a1.5,1.5,0,0,1,1.5-1.5h3A1.5,1.5,0,0,1,16,28v4H10Z"/></svg>
